<svg width="20" height="25" viewBox="0 0 20 25" fill="none" xmlns="http://www.w3.org/2000/svg">
<path fill-rule="evenodd" clip-rule="evenodd" d="M9.60888 19.7368L2.68897 23.5278C2.13647 23.815 1.4558 23.6117 1.15122 23.0686V23.0686C1.06309 22.9004 1.01555 22.7139 1.01239 22.524V5.72615C1.01239 2.52249 3.20156 1.24103 6.35183 1.24103H13.7523C16.8064 1.24103 19.0917 2.43706 19.0917 5.51258V22.524C19.0917 22.8271 18.9713 23.1177 18.757 23.332C18.5428 23.5463 18.2521 23.6667 17.9491 23.6667C17.7558 23.6636 17.5658 23.6161 17.3938 23.5278L10.4312 19.7368C10.1746 19.5982 9.86545 19.5982 9.60888 19.7368Z" stroke="#F9FAFB" stroke-width="1.5" stroke-linecap="round" stroke-linejoin="round"/>
<path d="M5.76447 8.87641H14.2755" stroke="#F9FAFB" stroke-width="1.5" stroke-linecap="round" stroke-linejoin="round"/>
</svg>
