<svg width="24" height="24" viewBox="0 0 24 24" fill="none" xmlns="http://www.w3.org/2000/svg">
<mask id="path-1-inside-1_405_4126" fill="white">
<path fill-rule="evenodd" clip-rule="evenodd" d="M21 5.7356C21 5.21809 20.4655 4.86929 19.9794 5.04692C17.7526 5.86067 14.9911 6.34235 12.0001 6.34235C9.00902 6.34235 6.24745 5.86064 4.02062 5.04684C3.53455 4.8692 3 5.218 3 5.73552V18.2644C3 18.7819 3.53454 19.1307 4.02062 18.9531C6.24742 18.1393 9.00895 17.6576 12 17.6576C14.991 17.6576 17.7526 18.1393 19.9794 18.9531C20.4655 19.1307 21 18.7819 21 18.2644V5.7356Z"/>
</mask>
<path d="M4.02062 18.9531L3.47143 17.4503L4.02062 18.9531ZM19.9794 5.04692L19.4302 3.54412L19.9794 5.04692ZM12.0001 7.94235C15.1534 7.94235 18.1037 7.43584 20.5286 6.54972L19.4302 3.54412C17.4015 4.2855 14.8288 4.74235 12.0001 4.74235V7.94235ZM3.47143 6.54963C5.89631 7.43581 8.84674 7.94235 12.0001 7.94235V4.74235C9.17131 4.74235 6.59859 4.28547 4.56982 3.54405L3.47143 6.54963ZM4.6 18.2644V5.73552H1.4V18.2644H4.6ZM12 16.0576C8.84667 16.0576 5.89629 16.5641 3.47143 17.4503L4.5698 20.4559C6.59856 19.7145 9.17124 19.2576 12 19.2576V16.0576ZM20.5286 17.4503C18.1037 16.5641 15.1533 16.0576 12 16.0576V19.2576C14.8288 19.2576 17.4014 19.7145 19.4302 20.4559L20.5286 17.4503ZM19.4 5.7356V18.2644H22.6V5.7356H19.4ZM19.4302 20.4559C20.883 20.9868 22.6 19.9742 22.6 18.2644H19.4C19.4 17.5896 20.0479 17.2746 20.5286 17.4503L19.4302 20.4559ZM1.4 18.2644C1.4 19.9742 3.11697 20.9868 4.5698 20.4559L3.47143 17.4503C3.95211 17.2746 4.6 17.5896 4.6 18.2644H1.4ZM4.56982 3.54405C3.11699 3.01311 1.4 4.02569 1.4 5.73552H4.6C4.6 6.41032 3.95211 6.7253 3.47143 6.54963L4.56982 3.54405ZM20.5286 6.54972C20.0479 6.72538 19.4 6.41039 19.4 5.7356H22.6C22.6 4.02578 20.883 3.0132 19.4302 3.54412L20.5286 6.54972Z" fill="#0F172A" mask="url(#path-1-inside-1_405_4126)"/>
<path d="M13.7853 11.822L10.4103 9.24174C10.3819 9.22001 10.3493 9.20814 10.316 9.20736C10.2827 9.20658 10.2499 9.21692 10.2208 9.2373C10.1917 9.25769 10.1675 9.28739 10.1507 9.32335C10.1339 9.35932 10.125 9.40024 10.125 9.44192V14.6024C10.125 14.6441 10.1339 14.685 10.1507 14.721C10.1675 14.7569 10.1917 14.7866 10.2208 14.807C10.2499 14.8274 10.2827 14.8378 10.316 14.837C10.3493 14.8362 10.3819 14.8243 10.4103 14.8026L13.7853 12.2223C13.8127 12.2014 13.8353 12.172 13.851 12.1369C13.8667 12.1019 13.875 12.0624 13.875 12.0222C13.875 11.982 13.8667 11.9425 13.851 11.9074C13.8353 11.8724 13.8127 11.8429 13.7853 11.822Z" fill="#0F172A"/>
<path fill-rule="evenodd" clip-rule="evenodd" d="M6 7V18H7.5L7.5 7H6ZM16.56 7V18H18.06V7H16.56Z" fill="#0F172A"/>
</svg>
