<svg width="32" height="32" viewBox="0 0 32 32" fill="none" xmlns="http://www.w3.org/2000/svg">
<path d="M16.0004 23.0001C19.8664 23.0001 23.0004 19.8661 23.0004 16.0001C23.0004 12.1341 19.8664 9.00006 16.0004 9.00006C12.1344 9.00006 9.00037 12.1341 9.00037 16.0001C9.00037 19.8661 12.1344 23.0001 16.0004 23.0001Z" stroke="#F9FAFB" stroke-width="1.5" stroke-linecap="round" stroke-linejoin="round"/>
<path d="M6.97387 22.3661L6.82426 24.6867C6.81352 24.8354 6.8357 24.9847 6.88922 25.1238C6.94274 25.263 7.02628 25.3887 7.1339 25.4918C8.57219 26.8561 10.3127 27.861 12.2133 28.4244C12.3565 28.466 12.507 28.4755 12.6543 28.4523C12.8016 28.4291 12.942 28.3737 13.0654 28.29L15.0002 27.0002H17.0002L18.9351 28.2901C19.0585 28.3737 19.1989 28.4292 19.3462 28.4524C19.4934 28.4756 19.644 28.4661 19.7872 28.4245C21.6878 27.861 23.4283 26.8562 24.8666 25.4919C24.9742 25.3887 25.0577 25.263 25.1113 25.1239C25.1648 24.9847 25.187 24.8355 25.1762 24.6868L25.0266 22.3662L26.0266 20.6342L28.1112 19.6034C28.2453 19.5384 28.3635 19.4445 28.4572 19.3286C28.551 19.2127 28.6181 19.0775 28.6536 18.9327C29.1159 17.005 29.1159 14.9953 28.6536 13.0676C28.618 12.9228 28.551 12.7876 28.4572 12.6716C28.3635 12.5557 28.2453 12.4619 28.1112 12.3968L26.0267 11.3661L25.0267 9.63404L25.1763 7.31343C25.1871 7.16471 25.1649 7.01546 25.1114 6.8763C25.0579 6.73714 24.9743 6.61148 24.8667 6.50829C23.4284 5.14404 21.6879 4.13919 19.7873 3.57574C19.6441 3.53413 19.4935 3.5246 19.3463 3.54782C19.199 3.57105 19.0586 3.62646 18.9352 3.71012L17.0004 4.99994H15.0004L13.0655 3.71006C12.942 3.62641 12.8017 3.57099 12.6544 3.54776C12.5071 3.52453 12.3566 3.53405 12.2134 3.57566C10.3128 4.13913 8.57229 5.144 7.13402 6.50826C7.0264 6.61145 6.94285 6.7371 6.88932 6.87626C6.8358 7.01542 6.81362 7.16467 6.82436 7.31339L6.97395 9.63393L5.97395 11.366L3.88943 12.3967C3.75528 12.4618 3.63711 12.5556 3.54335 12.6715C3.44959 12.7875 3.38255 12.9226 3.34699 13.0674C2.88465 14.9952 2.88466 17.0049 3.34701 18.9326C3.38256 19.0774 3.4496 19.2126 3.54336 19.3285C3.63711 19.4444 3.75528 19.5383 3.88944 19.6033L5.97387 20.634L6.97387 22.3661Z" stroke="#F9FAFB" stroke-width="1.5" stroke-linecap="round" stroke-linejoin="round"/>
</svg>
