<svg width="92" height="25" viewBox="0 0 92 25" fill="none" xmlns="http://www.w3.org/2000/svg">
<path d="M22.8 0.665C23.1733 0.221667 23.6167 0 24.13 0C24.4567 0 24.76 0.116667 25.04 0.35C25.3433 0.56 25.565 0.851666 25.705 1.225L32.775 22.68C32.845 22.89 32.88 23.0883 32.88 23.275C32.88 23.695 32.7283 24.0567 32.425 24.36C32.145 24.64 31.7833 24.78 31.34 24.78H2.21999C1.77666 24.78 1.40333 24.64 1.09999 24.36C0.819993 24.0567 0.679993 23.695 0.679993 23.275C0.679993 23.065 0.714993 22.855 0.784993 22.645L8.09999 1.26C8.23999 0.863333 8.43833 0.56 8.69499 0.35C8.97499 0.14 9.28999 0.0349996 9.63999 0.0349996C10.13 0.0349996 10.5733 0.268333 10.97 0.734999L15.66 6.545C15.94 6.91833 16.3017 7.105 16.745 7.105C17.165 7.105 17.5267 6.91833 17.83 6.545L22.8 0.665Z" fill="#E11D48"/>
<path d="M43.645 14.455V1.89C43.645 1.44667 43.8083 1.07333 44.135 0.769999C44.4616 0.443332 44.905 0.279999 45.465 0.279999H52.43C52.8033 0.279999 53.1183 0.408332 53.375 0.665C53.6316 0.921666 53.76 1.23667 53.76 1.61V13.09C53.76 15.4 53.3283 17.4417 52.465 19.215C51.6016 20.9883 50.3883 22.365 48.825 23.345C47.285 24.3017 45.4883 24.78 43.435 24.78C41.3816 24.78 39.5733 24.3017 38.01 23.345C36.47 22.365 35.2683 20.9883 34.405 19.215C33.5416 17.4417 33.11 15.4 33.11 13.09V1.61C33.11 1.23667 33.2383 0.921666 33.495 0.665C33.7516 0.408332 34.0666 0.279999 34.44 0.279999H41.405C41.965 0.279999 42.4083 0.443332 42.735 0.769999C43.0616 1.07333 43.225 1.44667 43.225 1.89L43.155 14.455H43.645Z" fill="#E11D48"/>
<path d="M69.2786 23.45C69.092 23.8467 68.8353 24.1617 68.5086 24.395C68.2053 24.605 67.867 24.71 67.4936 24.71C67.1203 24.71 66.7703 24.605 66.4436 24.395C66.117 24.1617 65.8603 23.8467 65.6736 23.45L55.8736 2.66C55.7336 2.38 55.6636 2.11167 55.6636 1.855C55.6636 1.41167 55.827 1.03833 56.1536 0.734999C56.5036 0.431665 56.9353 0.279999 57.4486 0.279999H77.4686C77.982 0.279999 78.402 0.443332 78.7286 0.769999C79.0553 1.07333 79.2186 1.44667 79.2186 1.89C79.2186 2.19333 79.1603 2.45 79.0436 2.66L69.2786 23.45Z" fill="#E11D48"/>
<path d="M89.7342 0.279999C90.1309 0.279999 90.4692 0.408332 90.7492 0.665C91.0292 0.921666 91.1692 1.23667 91.1692 1.61V23.45C91.1692 23.8233 91.0292 24.1383 90.7492 24.395C90.4692 24.6517 90.1309 24.78 89.7342 24.78H82.4892C82.0925 24.78 81.7542 24.6517 81.4742 24.395C81.1942 24.1383 81.0542 23.8233 81.0542 23.45V1.61C81.0542 1.23667 81.1942 0.921666 81.4742 0.665C81.7542 0.408332 82.0925 0.279999 82.4892 0.279999H89.7342Z" fill="#E11D48"/>
</svg>
