<svg width="77" height="15" viewBox="0 0 77 15" fill="none" xmlns="http://www.w3.org/2000/svg">
<g clip-path="url(#clip0_738_73)">
<path d="M13.2211 5.54559C13.2082 5.50571 13.1843 5.47026 13.1523 5.44325C13.1202 5.41624 13.0812 5.39876 13.0397 5.39278L8.88778 4.78965L7.03099 1.02721C7.01015 0.992376 6.98064 0.963538 6.94533 0.943514C6.91002 0.92349 6.87012 0.912964 6.82952 0.912964C6.78893 0.912964 6.74903 0.92349 6.71372 0.943514C6.67841 0.963538 6.64889 0.992376 6.62805 1.02721L4.77127 4.78965L0.618908 5.39278C0.577186 5.3986 0.537943 5.41605 0.505665 5.44312C0.473386 5.47019 0.449375 5.50579 0.436374 5.54586C0.423373 5.58593 0.421908 5.62885 0.432146 5.66971C0.442384 5.71058 0.463912 5.74774 0.494269 5.77695L3.50012 8.70447L2.78985 12.8398C2.78261 12.8811 2.78712 12.9237 2.80287 12.9627C2.81861 13.0016 2.84495 13.0354 2.87891 13.0601C2.91287 13.0848 2.95308 13.0996 2.99498 13.1026C3.03688 13.1056 3.07879 13.0969 3.11596 13.0773L6.82952 11.1243L10.5431 13.0773C10.5802 13.0968 10.622 13.1055 10.6638 13.1025C10.7056 13.0995 10.7457 13.0849 10.7797 13.0603C10.8136 13.0356 10.8399 13.002 10.8558 12.9632C10.8716 12.9244 10.8762 12.8819 10.8692 12.8406L10.1602 8.70468L13.1646 5.77609C13.1945 5.74673 13.2156 5.70961 13.2256 5.66889C13.2356 5.62817 13.2341 5.58547 13.2211 5.54559Z" fill="#FACC15"/>
</g>
<g clip-path="url(#clip1_738_73)">
<path d="M28.8315 5.54559C28.8186 5.50571 28.7947 5.47026 28.7626 5.44325C28.7306 5.41624 28.6916 5.39876 28.6501 5.39278L24.4982 4.78965L22.6414 1.02721C22.6205 0.992376 22.591 0.963538 22.5557 0.943514C22.5204 0.92349 22.4805 0.912964 22.4399 0.912964C22.3993 0.912964 22.3594 0.92349 22.3241 0.943514C22.2888 0.963538 22.2593 0.992376 22.2384 1.02721L20.3817 4.78965L16.2293 5.39278C16.1876 5.3986 16.1483 5.41605 16.116 5.44312C16.0838 5.47019 16.0598 5.50579 16.0468 5.54586C16.0338 5.58593 16.0323 5.62885 16.0425 5.66971C16.0528 5.71058 16.0743 5.74774 16.1047 5.77695L19.1105 8.70447L18.4002 12.8398C18.393 12.8811 18.3975 12.9237 18.4132 12.9627C18.429 13.0016 18.4553 13.0354 18.4893 13.0601C18.5232 13.0848 18.5635 13.0996 18.6054 13.1026C18.6473 13.1056 18.6892 13.0969 18.7263 13.0773L22.4399 11.1243L26.1535 13.0773C26.1906 13.0968 26.2324 13.1055 26.2742 13.1025C26.316 13.0995 26.3561 13.0849 26.39 13.0603C26.424 13.0356 26.4503 13.002 26.4661 12.9632C26.482 12.9244 26.4866 12.8819 26.4796 12.8406L25.7706 8.70468L28.7749 5.77609C28.8049 5.74673 28.826 5.70961 28.836 5.66889C28.846 5.62817 28.8444 5.58547 28.8315 5.54559Z" fill="#FACC15"/>
</g>
<g clip-path="url(#clip2_738_73)">
<path d="M44.4419 5.54559C44.4289 5.50571 44.4051 5.47026 44.373 5.44325C44.341 5.41624 44.302 5.39876 44.2605 5.39278L40.1085 4.78965L38.2518 1.02721C38.2309 0.992376 38.2014 0.963538 38.1661 0.943514C38.1308 0.92349 38.0909 0.912964 38.0503 0.912964C38.0097 0.912964 37.9698 0.92349 37.9345 0.943514C37.8992 0.963538 37.8697 0.992376 37.8488 1.02721L35.992 4.78965L31.8397 5.39278C31.798 5.3986 31.7587 5.41605 31.7264 5.44312C31.6942 5.47019 31.6701 5.50579 31.6571 5.54586C31.6441 5.58593 31.6427 5.62885 31.6529 5.66971C31.6631 5.71058 31.6847 5.74774 31.715 5.77695L34.7209 8.70447L34.0106 12.8398C34.0034 12.8811 34.0079 12.9237 34.0236 12.9627C34.0394 13.0016 34.0657 13.0354 34.0997 13.0601C34.1336 13.0848 34.1738 13.0996 34.2157 13.1026C34.2576 13.1056 34.2996 13.0969 34.3367 13.0773L38.0503 11.1243L41.7638 13.0773C41.8009 13.0968 41.8428 13.1055 41.8846 13.1025C41.9264 13.0995 41.9665 13.0849 42.0004 13.0603C42.0343 13.0356 42.0607 13.002 42.0765 12.9632C42.0924 12.9244 42.097 12.8819 42.09 12.8406L41.381 8.70468L44.3853 5.77609C44.4153 5.74673 44.4364 5.70961 44.4464 5.66889C44.4564 5.62817 44.4548 5.58547 44.4419 5.54559Z" fill="#FACC15"/>
</g>
<g clip-path="url(#clip3_738_73)">
<path d="M60.0522 5.54559C60.0393 5.50571 60.0155 5.47026 59.9834 5.44325C59.9513 5.41624 59.9123 5.39876 59.8708 5.39278L55.7189 4.78965L53.8621 1.02721C53.8413 0.992376 53.8118 0.963538 53.7765 0.943514C53.7411 0.92349 53.7012 0.912964 53.6607 0.912964C53.6201 0.912964 53.5802 0.92349 53.5448 0.943514C53.5095 0.963538 53.48 0.992376 53.4592 1.02721L51.6024 4.78965L47.45 5.39278C47.4083 5.3986 47.3691 5.41605 47.3368 5.44312C47.3045 5.47019 47.2805 5.50579 47.2675 5.54586C47.2545 5.58593 47.253 5.62885 47.2633 5.66971C47.2735 5.71058 47.295 5.74774 47.3254 5.77695L50.3313 8.70447L49.621 12.8398C49.6137 12.8811 49.6183 12.9237 49.634 12.9627C49.6497 13.0016 49.6761 13.0354 49.71 13.0601C49.744 13.0848 49.7842 13.0996 49.8261 13.1026C49.868 13.1056 49.9099 13.0969 49.9471 13.0773L53.6607 11.1243L57.3742 13.0773C57.4113 13.0968 57.4531 13.1055 57.4949 13.1025C57.5367 13.0995 57.5769 13.0849 57.6108 13.0603C57.6447 13.0356 57.6711 13.002 57.6869 12.9632C57.7027 12.9244 57.7074 12.8819 57.7003 12.8406L56.9913 8.70468L59.9957 5.77609C60.0256 5.74673 60.0468 5.70961 60.0568 5.66889C60.0668 5.62817 60.0652 5.58547 60.0522 5.54559Z" fill="#FACC15"/>
</g>
<g clip-path="url(#clip4_738_73)">
<path d="M75.6626 5.54559C75.6497 5.50571 75.6258 5.47026 75.5938 5.44325C75.5617 5.41624 75.5227 5.39876 75.4812 5.39278L71.3293 4.78965L69.4725 1.02721C69.4517 0.992376 69.4222 0.963538 69.3868 0.943514C69.3515 0.92349 69.3116 0.912964 69.271 0.912964C69.2304 0.912964 69.1905 0.92349 69.1552 0.943514C69.1199 0.963538 69.0904 0.992376 69.0696 1.02721L67.2128 4.78965L63.0604 5.39278C63.0187 5.3986 62.9795 5.41605 62.9472 5.44312C62.9149 5.47019 62.8909 5.50579 62.8779 5.54586C62.8649 5.58593 62.8634 5.62885 62.8737 5.66971C62.8839 5.71058 62.9054 5.74774 62.9358 5.77695L65.9416 8.70447L65.2314 12.8398C65.2241 12.8811 65.2286 12.9237 65.2444 12.9627C65.2601 13.0016 65.2865 13.0354 65.3204 13.0601C65.3544 13.0848 65.3946 13.0996 65.4365 13.1026C65.4784 13.1056 65.5203 13.0969 65.5575 13.0773L69.271 11.1243L72.9846 13.0773C73.0217 13.0968 73.0635 13.1055 73.1053 13.1025C73.1471 13.0995 73.1873 13.0849 73.2212 13.0603C73.2551 13.0356 73.2815 13.002 73.2973 12.9632C73.3131 12.9244 73.3178 12.8819 73.3107 12.8406L72.6017 8.70468L75.6061 5.77609C75.636 5.74673 75.6572 5.70961 75.6672 5.66889C75.6771 5.62817 75.6756 5.58547 75.6626 5.54559Z" fill="#FACC15"/>
</g>
<defs>
<clipPath id="clip0_738_73">
<rect width="13.6591" height="13.6591" fill="white" transform="translate(0 0.485352)"/>
</clipPath>
<clipPath id="clip1_738_73">
<rect width="13.6591" height="13.6591" fill="white" transform="translate(15.6104 0.485352)"/>
</clipPath>
<clipPath id="clip2_738_73">
<rect width="13.6591" height="13.6591" fill="white" transform="translate(31.2207 0.485352)"/>
</clipPath>
<clipPath id="clip3_738_73">
<rect width="13.6591" height="13.6591" fill="white" transform="translate(46.8311 0.485352)"/>
</clipPath>
<clipPath id="clip4_738_73">
<rect width="13.6591" height="13.6591" fill="white" transform="translate(62.4414 0.485352)"/>
</clipPath>
</defs>
</svg>
