<svg width="24" height="24" viewBox="0 0 24 24" fill="none" xmlns="http://www.w3.org/2000/svg">
<path fill-rule="evenodd" clip-rule="evenodd" d="M8.70163 6.6C7.9824 6.6 7.40017 7.18223 7.40017 7.90146V12.7881C7.591 12.7341 7.79231 12.7053 8.00027 12.7053H16.1277C16.3358 12.7053 16.5371 12.7341 16.7278 12.788V7.90146C16.7278 7.18223 16.1455 6.6 15.4263 6.6H8.70163ZM8.00027 14.3053C7.66883 14.3053 7.40017 14.5733 7.40017 14.9054V17.3251H16.7278V14.9054C16.7278 14.5739 16.4598 14.3053 16.1277 14.3053H8.00027ZM18.3278 17.3251H18.9305C19.2626 17.3251 19.5306 17.0564 19.5306 16.725V12.6271C19.5306 12.295 19.2619 12.027 18.9305 12.027H18.3278V14.9054V17.3251ZM18.3278 10.427V7.90146C18.3278 6.29858 17.0292 5 15.4263 5H8.70163C7.09874 5 5.80017 6.29858 5.80017 7.90146V10.427H5.2001C3.98238 10.427 3 11.414 3 12.6271V16.725C3 17.9427 3.98696 18.9251 5.2001 18.9251H18.9305C20.1482 18.9251 21.1306 17.9381 21.1306 16.725V12.6271C21.1306 11.4094 20.1437 10.427 18.9305 10.427H18.3278ZM5.80017 12.027H5.2001C4.86799 12.027 4.6 12.2957 4.6 12.6271V16.725C4.6 17.0571 4.86866 17.3251 5.2001 17.3251H5.80017V14.9054V12.027Z" fill="#0F172A"/>
</svg>
