<svg width="28" height="28" viewBox="0 0 28 28" fill="none" xmlns="http://www.w3.org/2000/svg">
<path d="M7 17.5C8.933 17.5 10.5 15.933 10.5 14C10.5 12.067 8.933 10.5 7 10.5C5.067 10.5 3.5 12.067 3.5 14C3.5 15.933 5.067 17.5 7 17.5Z" stroke="#F9FAFB" stroke-width="1.5" stroke-linecap="round" stroke-linejoin="round"/>
<path d="M19.25 25.375C21.183 25.375 22.75 23.808 22.75 21.875C22.75 19.942 21.183 18.375 19.25 18.375C17.317 18.375 15.75 19.942 15.75 21.875C15.75 23.808 17.317 25.375 19.25 25.375Z" stroke="#F9FAFB" stroke-width="1.5" stroke-linecap="round" stroke-linejoin="round"/>
<path d="M19.25 9.625C21.183 9.625 22.75 8.058 22.75 6.125C22.75 4.192 21.183 2.625 19.25 2.625C17.317 2.625 15.75 4.192 15.75 6.125C15.75 8.058 17.317 9.625 19.25 9.625Z" stroke="#F9FAFB" stroke-width="1.5" stroke-linecap="round" stroke-linejoin="round"/>
<path d="M16.3061 8.01752L9.94366 12.1077" stroke="#F9FAFB" stroke-width="1.5" stroke-linecap="round" stroke-linejoin="round"/>
<path d="M9.9436 15.8923L16.3061 19.9825" stroke="#F9FAFB" stroke-width="1.5" stroke-linecap="round" stroke-linejoin="round"/>
</svg>
